<?xml version="1.0" standalone="no"?>
<!DOCTYPE svg PUBLIC "-//W3C//DTD SVG 20010904//EN"
 "http://www.w3.org/TR/2001/REC-SVG-20010904/DTD/svg10.dtd">
<svg version="1.0" xmlns="http://www.w3.org/2000/svg"
 width="720.000000pt" height="1280.000000pt" viewBox="0 0 720.000000 1280.000000"
 preserveAspectRatio="xMidYMid meet">
<g transform="translate(0.000000,1280.000000) scale(0.100000,-0.100000)"
fill="#000000" stroke="none">
<path d="M3515 12356 c-367 -115 -990 -352 -1500 -571 -868 -372 -1355 -667
-1355 -821 0 -60 107 -177 245 -269 312 -207 812 -366 1630 -517 41 -8 70 -18
70 -25 0 -12 -220 -173 -235 -173 -4 0 -41 -42 -83 -92 -309 -381 -576 -1015
-741 -1758 -100 -450 -178 -1025 -205 -1520 -6 -102 -13 -222 -16 -266 -4 -65
-2 -84 10 -94 22 -18 19 -36 -15 -86 -38 -54 -60 -115 -60 -164 0 -21 -6 -42
-12 -47 -7 -5 -112 -49 -233 -98 -238 -95 -533 -225 -572 -251 -24 -15 -25
-20 -21 -92 4 -83 27 -145 60 -163 22 -12 196 55 591 227 132 57 244 104 249
104 6 0 35 -12 64 -26 76 -37 166 -31 338 21 121 38 130 42 142 72 8 18 14 57
14 88 0 30 4 55 8 55 4 0 26 -30 47 -67 48 -82 124 -163 152 -163 11 0 26 7
33 15 19 23 14 149 -11 240 -36 134 -36 133 2 149 52 22 59 9 59 -109 0 -418
90 -1288 149 -1438 14 -37 33 -43 200 -66 86 -12 148 -26 153 -33 4 -7 8 -33
8 -58 0 -25 7 -200 15 -390 21 -493 51 -1230 80 -1935 14 -335 29 -700 34
-810 8 -152 7 -203 -2 -211 -7 -6 -66 -31 -132 -54 -297 -106 -540 -215 -581
-261 -25 -27 -10 -50 47 -68 70 -23 360 -19 534 8 253 38 472 103 529 156 25
23 26 28 26 134 0 60 25 554 55 1097 30 544 64 1149 75 1344 54 984 53 961 70
970 9 5 30 6 46 1 26 -7 30 -13 37 -62 4 -30 39 -634 77 -1344 39 -709 77
-1398 85 -1530 8 -132 15 -304 15 -383 0 -79 4 -152 10 -162 31 -57 247 -128
545 -176 155 -26 503 -27 558 -2 55 25 50 50 -19 94 -90 58 -257 129 -514 221
-169 60 -172 62 -165 121 5 44 11 186 50 1147 8 204 22 530 30 725 9 195 26
622 40 949 13 326 27 596 30 599 3 4 51 16 107 29 55 12 109 30 119 39 99 90
89 723 -26 1636 -14 108 -25 204 -25 213 0 8 11 20 25 25 31 12 90 101 105
159 25 94 -21 184 -116 228 -51 23 -55 27 -52 56 3 31 7 34 133 84 72 29 133
52 138 53 17 0 25 -56 47 -302 l22 -257 -21 -43 c-25 -53 -59 -196 -67 -286
-5 -49 -2 -77 9 -103 14 -33 21 -38 99 -62 158 -49 208 -59 288 -55 65 2 82 7
113 31 46 35 74 89 93 176 22 105 18 196 -11 259 -41 88 -81 138 -130 162 -27
13 -45 28 -45 39 0 35 -30 477 -35 521 -3 25 -2 50 2 56 5 6 467 190 1028 409
561 219 1023 401 1027 404 7 6 -35 247 -44 256 -2 2 -459 -183 -1016 -412
-557 -228 -1016 -412 -1019 -409 -4 4 -19 98 -34 210 -86 638 -223 1199 -410
1671 -70 179 -194 435 -273 564 -31 52 -55 98 -54 103 2 5 200 10 463 12 253
2 514 9 580 15 399 38 620 97 668 179 l19 32 -26 53 c-135 272 -809 984 -1457
1541 -399 343 -698 549 -817 562 -24 3 -75 -8 -147 -30z m890 -3603 c23 -54
70 -237 99 -383 53 -265 150 -965 144 -1042 l-3 -40 -108 -44 c-59 -24 -117
-44 -127 -44 -19 0 -20 9 -20 338 0 185 -5 539 -10 785 -11 488 -10 513 25
430z m-2260 -631 c1 -317 7 -720 14 -895 14 -315 14 -318 -6 -340 -73 -79 -77
-174 -15 -320 41 -98 41 -98 35 -193 -3 -52 -11 -98 -17 -102 -16 -10 -139
-62 -147 -62 -4 0 -22 25 -39 55 -46 81 -106 152 -142 171 -31 16 -32 16 -50
-6 -20 -25 -24 -102 -8 -180 5 -25 5 -49 1 -53 -9 -9 -103 13 -113 27 -3 5 -4
23 -2 40 2 17 18 146 35 286 57 476 144 1035 215 1385 80 389 193 765 232 765
4 0 7 -260 7 -578z"/>
</g>
</svg>
